<svg xmlns="http://www.w3.org/2000/svg" viewBox="0 0 400 240" role="img" aria-label="Continuous Drying Line">
  <rect width="400" height="240" fill="#f5f5f5"/>
  <rect x="20" y="110" width="80" height="70" rx="4" fill="#ffffff" stroke="#da5f06" stroke-width="3"/>
  <rect x="120" y="110" width="80" height="70" rx="4" fill="#ffffff" stroke="#da5f06" stroke-width="3"/>
  <rect x="220" y="110" width="80" height="70" rx="4" fill="#ffffff" stroke="#da5f06" stroke-width="3"/>
  <rect x="320" y="110" width="60" height="70" rx="4" fill="#ffffff" stroke="#da5f06" stroke-width="3"/>
  <line x1="100" y1="145" x2="120" y2="145" stroke="#da5f06" stroke-width="3"/>
  <line x1="200" y1="145" x2="220" y2="145" stroke="#da5f06" stroke-width="3"/>
  <line x1="300" y1="145" x2="320" y2="145" stroke="#da5f06" stroke-width="3"/>
  <g fill="#da5f06" opacity="0.2">
    <rect x="30" y="125" width="60" height="40" rx="1"/>
    <rect x="130" y="125" width="60" height="40" rx="1"/>
    <rect x="230" y="125" width="60" height="40" rx="1"/>
    <rect x="330" y="125" width="40" height="40" rx="1"/>
  </g>
  <g opacity="0.55" stroke="#da5f06" stroke-width="2" fill="none">
    <path d="M 60 95 Q 70 75 60 55"/>
    <path d="M 160 95 Q 170 75 160 55"/>
    <path d="M 260 95 Q 270 75 260 55"/>
  </g>
  <text x="200" y="225" text-anchor="middle" font-family="system-ui, -apple-system, sans-serif" font-size="13" font-weight="600" fill="#2a2a2a">Continuous Drying Line</text>
</svg>
