<svg xmlns="http://www.w3.org/2000/svg" viewBox="0 0 480 280" role="img" aria-label="Full Modernization Package">
  <rect width="480" height="280" fill="#f5f5f5"/>
  <rect x="60" y="100" width="160" height="100" rx="6" fill="#ffffff" stroke="#da5f06" stroke-width="3"/>
  <rect x="260" y="100" width="160" height="100" rx="6" fill="#ffffff" stroke="#da5f06" stroke-width="3"/>
  <rect x="72" y="112" width="136" height="18" fill="#da5f06" opacity="0.3"/>
  <rect x="72" y="135" width="136" height="6" fill="#da5f06" opacity="0.4"/>
  <rect x="72" y="146" width="136" height="6" fill="#da5f06" opacity="0.4"/>
  <rect x="72" y="157" width="136" height="6" fill="#da5f06" opacity="0.4"/>
  <rect x="72" y="168" width="136" height="6" fill="#da5f06" opacity="0.4"/>
  <rect x="272" y="120" width="136" height="20" rx="2" fill="#da5f06" opacity="0.2"/>
  <text x="340" y="134" text-anchor="middle" font-family="system-ui, -apple-system, sans-serif" font-size="10" font-weight="600" fill="#da5f06">SCADA</text>
  <polyline points="282,170 302,155 322,160 342,145 362,150 382,140 402,148" stroke="#da5f06" stroke-width="2.5" fill="none"/>
  <path d="M 220 140 L 260 140" stroke="#da5f06" stroke-width="3" fill="none"/>
  <polygon points="260,140 252,135 252,145" fill="#da5f06"/>
  <path d="M 260 165 L 220 165" stroke="#da5f06" stroke-width="3" fill="none"/>
  <polygon points="220,165 228,160 228,170" fill="#da5f06"/>
  <g opacity="0.6" stroke="#da5f06" stroke-width="2" fill="none">
    <path d="M 100 85 Q 110 65 100 45"/>
    <path d="M 140 85 Q 150 65 140 45"/>
    <path d="M 180 85 Q 190 65 180 45"/>
  </g>
  <text x="240" y="245" text-anchor="middle" font-family="system-ui, -apple-system, sans-serif" font-size="14" font-weight="600" fill="#2a2a2a">Full Modernization Package</text>
</svg>
