<svg xmlns="http://www.w3.org/2000/svg" viewBox="0 0 480 280" role="img" aria-label="Smart Control &amp; Monitoring Suite">
  <rect width="480" height="280" fill="#f5f5f5"/>
  <rect x="120" y="80" width="240" height="150" rx="10" fill="#ffffff" stroke="#da5f06" stroke-width="3"/>
  <rect x="135" y="95" width="210" height="30" rx="3" fill="#da5f06" opacity="0.2"/>
  <text x="240" y="115" text-anchor="middle" font-family="system-ui, -apple-system, sans-serif" font-size="11" font-weight="600" fill="#da5f06">SCADA · LIVE</text>
  <g fill="#da5f06" opacity="0.7">
    <rect x="145" y="140" width="60" height="6" rx="1"/>
    <rect x="145" y="150" width="40" height="6" rx="1"/>
    <rect x="145" y="160" width="55" height="6" rx="1"/>
    <rect x="145" y="170" width="35" height="6" rx="1"/>
    <rect x="145" y="180" width="50" height="6" rx="1"/>
    <rect x="145" y="190" width="45" height="6" rx="1"/>
    <rect x="145" y="200" width="40" height="6" rx="1"/>
  </g>
  <polyline points="225,205 245,180 265,195 285,165 305,175 325,150 345,160" stroke="#da5f06" stroke-width="2.5" fill="none"/>
  <g fill="#da5f06">
    <circle cx="225" cy="205" r="2.5"/>
    <circle cx="245" cy="180" r="2.5"/>
    <circle cx="265" cy="195" r="2.5"/>
    <circle cx="285" cy="165" r="2.5"/>
    <circle cx="305" cy="175" r="2.5"/>
    <circle cx="325" cy="150" r="2.5"/>
    <circle cx="345" cy="160" r="2.5"/>
  </g>
  <text x="240" y="260" text-anchor="middle" font-family="system-ui, -apple-system, sans-serif" font-size="14" font-weight="600" fill="#2a2a2a">Smart Control &amp; Monitoring Suite</text>
</svg>
